Coordinates
version=1
nRows=8
nColumns=28
inDegrees=yes

Units are S.I. units (second, meters, Newtons, ...)
Angles are in degrees.

endheader
time	pelvis_tilt	pelvis_list	pelvis_rotation	pelvis_tx	pelvis_ty	pelvis_tz	hip_flexion_r	hip_adduction_r	hip_rotation_r	knee_angle_r	ankle_angle_r	subtalar_angle_r	mtp_angle_r	hip_flexion_l	hip_adduction_l	hip_rotation_l	knee_angle_l	socket_flexion	socket_adduction	socket_rotation	socket_tx	socket_ty	socket_tz	foot_flex	lumbar_extension	lumbar_bending	lumbar_rotation
      0.00000000	      1.83455525	     -5.32914967	     -9.40179505	     -0.86472378	      0.99549583	      0.29786215	    -27.72032266	      5.97184956	      3.97380781	     -3.20751360	     12.70153776	     -5.03364981	      3.69962505	     26.24986656	    -10.26335933	    -10.59734796	    -12.90097050	      1.12838307	      0.00000000	      0.00000000	      0.00000000	      0.00000000	      0.00000000	     -0.72989958	    -13.09819648	      2.19465815	     11.81652815
      0.00416667	      1.77197955	     -5.35309410	     -9.31719980	     -0.85904556	      0.99484984	      0.29741806	    -27.82178449	      5.99696028	      4.02946130	     -3.44452037	     12.64422776	     -5.05002389	      3.69034258	     26.06918594	    -10.18014680	    -10.57990921	    -12.93433522	      1.09904531	      0.00000000	      0.00000000	      0.00000000	      0.00000000	      0.00000000	     -0.81316356	    -12.93316750	      2.21799767	     11.81358976
      0.00833333	      1.73115526	     -5.39027737	     -9.35578681	     -0.85354169	      0.99440962	      0.29701722	    -27.64331579	      5.98209141	      3.86478503	     -4.25026037	     12.36246195	     -5.39914585	      3.63903406	     25.78816292	    -10.14290853	    -10.57900275	    -12.80655154	      1.11727341	      0.00000000	      0.00000000	      0.00000000	      0.00000000	      0.00000000	     -1.26572333	    -12.90688326	      2.24781602	     11.78562546
      0.01250000	      1.66384513	     -5.40903454	     -9.26422903	     -0.84740443	      0.99377823	      0.29652560	    -27.74139364	      6.00312511	      3.94197320	     -4.51104261	     12.30596558	     -5.41252184	      3.63506279	     25.58799521	    -10.04742522	    -10.55095251	    -12.84438738	      1.07970033	      0.00000000	      0.00000000	      0.00000000	      0.00000000	      0.00000000	     -1.35764376	    -12.72758866	      2.27232792	     11.78569589
      0.01666667	      1.61004307	     -5.44604193	     -9.32821791	     -0.84157787	      0.99334329	      0.29616977	    -27.50454965	      5.98288160	      3.80835663	     -5.43777592	     12.02432626	     -5.78900237	      3.63142329	     25.29942619	    -10.02170956	    -10.55660160	    -12.72659631	      1.09001625	      0.00000000	      0.00000000	      0.00000000	      0.00000000	      0.00000000	     -1.83340788	    -12.67252619	      2.27621511	     11.78200614
      0.02083333	      1.54238873	     -5.45393738	     -9.22367003	     -0.83514188	      0.99276849	      0.29559198	    -27.59123473	      5.99427262	      3.90513214	     -5.72846689	     11.95700117	     -5.80155709	      3.62944897	     25.08556966	     -9.90263637	    -10.51572025	    -12.77183181	      1.05173819	      0.00000000	      0.00000000	      0.00000000	      0.00000000	      0.00000000	     -1.93091170	    -12.48888646	      2.30802360	     11.78473055
      0.02500000	      1.49132302	     -5.45528327	     -9.25557858	     -0.82909698	      0.99235961	      0.29514077	    -27.35331353	      5.94940498	      3.81609999	     -6.66723774	     11.61530714	     -6.11709085	      3.60878307	     24.80923100	     -9.82172942	    -10.45936296	    -12.71075033	      1.01303253	      0.00000000	      0.00000000	      0.00000000	      0.00000000	      0.00000000	     -2.49815430	    -12.44931418	      2.27680097	     11.76317654
      0.02916667	      1.42716031	     -5.43656441	     -9.23346311	     -0.82271652	      0.99192143	      0.29471035	    -27.25518707	      5.91329511	      3.84563485	     -7.30707245	     11.39923543	     -6.28901074	      3.60703656	     24.55908404	     -9.71561044	    -10.36340844	    -12.71416712	      0.98422190	      0.00000000	      0.00000000	      0.00000000	      0.00000000	      0.00000000	     -2.73257640	    -12.31193301	      2.23833994	     11.75058683
